<svg width="222" height="40" viewBox="0 0 222 40" fill="none" xmlns="http://www.w3.org/2000/svg">
<path fill-rule="evenodd" clip-rule="evenodd" d="M70.5586 2.74668C70.4874 2.67551 70.4379 2.58575 70.4157 2.48774C70.3935 2.38973 70.3995 2.28746 70.433 2.1927C70.4666 2.09795 70.5263 2.01457 70.6053 1.95218C70.6843 1.88978 70.7793 1.8509 70.8795 1.84001L70.9731 1.53335C71.0801 1.33335 71.3877 1.12001 71.5883 1.22668C71.7126 1.27356 71.8192 1.35774 71.8935 1.46759C71.9677 1.57745 72.006 1.70757 72.0029 1.84001L71.8959 2.14668C71.9603 2.23101 72.0036 2.32943 72.0222 2.43378C72.0408 2.53812 72.0342 2.64539 72.0029 2.74668C72.0029 2.96001 71.8959 3.05335 71.6953 3.16001C71.8959 3.26668 72.0965 3.36001 72.2035 3.26668C72.2465 3.08511 72.314 2.91019 72.4041 2.74668C72.5495 2.66486 72.7171 2.63111 72.8829 2.65027C73.0487 2.66944 73.2042 2.74054 73.3269 2.85335C73.3662 2.81279 73.4145 2.782 73.4679 2.76348C73.5214 2.74495 73.5784 2.7392 73.6345 2.74668C74.1427 2.74668 74.2497 3.16001 73.9421 3.46668C73.7415 3.56001 73.5275 3.77335 73.3269 3.86668L73.0193 4.17335C72.7236 4.47081 72.4836 4.81848 72.3105 5.20001C72.2035 5.40001 72.2035 5.70668 72.0965 5.90668L71.8959 6.21335L71.6953 6.01335C71.3544 5.72883 70.9708 5.49938 70.5586 5.33335C70.06 5.04579 69.489 4.90696 68.9136 4.93335V4.93335C68.3438 4.91988 67.7806 5.05794 67.2821 5.33335C66.886 5.53804 66.5099 5.77908 66.1587 6.05335L65.9581 6.25335L65.8511 5.94668C65.6505 5.74668 65.6505 5.44001 65.5435 5.24001C65.3673 4.88137 65.1616 4.53797 64.9283 4.21335C64.8347 4.12001 64.6207 4.01335 64.5271 3.90668C64.3367 3.75223 64.1305 3.61816 63.9119 3.50668C63.8307 3.45652 63.7693 3.37993 63.7382 3.28986C63.7071 3.19979 63.7082 3.10178 63.7412 3.01239C63.7742 2.923 63.8372 2.84773 63.9195 2.79932C64.0018 2.7509 64.0983 2.73231 64.1928 2.74668C64.2488 2.7392 64.3059 2.74495 64.3593 2.76348C64.4127 2.782 64.4611 2.81279 64.5004 2.85335C64.808 2.65335 65.2092 2.54668 65.4231 2.74668C65.4908 2.81481 65.5436 2.8962 65.5781 2.98571C65.6127 3.07521 65.6282 3.17089 65.6237 3.26668C65.7092 3.30275 65.8038 3.31187 65.8946 3.2928C65.9855 3.27373 66.0683 3.22739 66.1319 3.16001C66.0035 3.04346 65.899 2.90307 65.8243 2.74668C65.7931 2.64539 65.7864 2.53812 65.8051 2.43378C65.8237 2.32943 65.8669 2.23101 65.9313 2.14668V1.84001C65.9063 1.77995 65.8945 1.71521 65.8968 1.6502C65.899 1.58519 65.9153 1.52142 65.9445 1.46324C65.9737 1.40506 66.0151 1.35382 66.0659 1.313C66.1167 1.27218 66.1757 1.24274 66.2389 1.22668C66.4395 1.12001 66.7471 1.33335 66.8541 1.53335L66.9477 1.84001C67.0435 1.85888 67.1335 1.90021 67.2101 1.96061C67.2867 2.021 67.3478 2.09871 67.3883 2.18731C67.4288 2.27591 67.4476 2.37286 67.4431 2.47013C67.4385 2.5674 67.4109 2.66219 67.3623 2.74668V2.74668V2.85335C67.5234 2.90589 67.6952 2.91631 67.8615 2.88363C68.0278 2.85094 68.1828 2.77624 68.3118 2.66668C68.2464 2.61907 68.193 2.55694 68.1559 2.4852C68.1187 2.41345 68.0989 2.33407 68.0978 2.25335C68.0838 2.13237 68.1054 2.00994 68.16 1.90101C68.2147 1.79209 68.2999 1.70139 68.4054 1.64001V1.33335C68.3934 1.259 68.3977 1.18294 68.418 1.11041C68.4383 1.03788 68.4742 0.970614 68.5232 0.913271C68.5721 0.855927 68.633 0.809871 68.7016 0.778288C68.7701 0.746704 68.8448 0.730347 68.9203 0.730347C68.9958 0.730347 69.0705 0.746704 69.1391 0.778288C69.2076 0.809871 69.2685 0.855927 69.3175 0.913271C69.3664 0.970614 69.4023 1.03788 69.4226 1.11041C69.443 1.18294 69.4472 1.259 69.4352 1.33335V1.62668C69.5407 1.68806 69.626 1.77875 69.6806 1.88768C69.7352 1.9966 69.7568 2.11904 69.7428 2.24001C69.7454 2.32186 69.7286 2.40316 69.6937 2.4773C69.6589 2.55144 69.6069 2.61633 69.5422 2.66668C69.6699 2.76909 69.8197 2.84048 69.9799 2.87519C70.1401 2.9099 70.3061 2.90699 70.4649 2.86668C70.4649 2.83839 70.4762 2.81126 70.4963 2.79125C70.5164 2.77125 70.5436 2.76001 70.5719 2.76001L70.5586 2.74668Z" fill="black"/>
<path fill-rule="evenodd" clip-rule="evenodd" d="M68.9136 4.68C69.52 4.65793 70.121 4.80082 70.6522 5.09334C71.086 5.28531 71.4984 5.52217 71.8825 5.8C71.9868 5.57664 72.0546 5.33806 72.0831 5.09334C72.2624 4.71595 72.5068 4.37294 72.8053 4.08C72.9299 3.95999 73.0338 3.82035 73.1129 3.66667C73.3364 3.56391 73.5437 3.42916 73.7281 3.26667C73.9287 3.16001 73.8217 2.96001 73.6211 2.96001C73.4205 2.96001 73.4205 3.05334 73.2065 3.16001V3.05334C73.1339 2.96875 73.0333 2.91286 72.9229 2.89574C72.8126 2.87862 72.6997 2.90142 72.6047 2.96001C72.4977 3.05334 72.3907 3.26667 72.4977 3.36001V3.46667C72.3927 3.52304 72.276 3.5545 72.1568 3.55861C72.0376 3.56271 71.919 3.53934 71.8104 3.49032C71.7017 3.4413 71.6058 3.36795 71.5302 3.27598C71.4546 3.184 71.4012 3.07587 71.3743 2.96001C71.575 2.96001 71.7756 2.85334 71.7756 2.74667C71.7756 2.64001 71.7756 2.34667 71.575 2.14667L71.6819 1.84001C71.7182 1.77006 71.7274 1.68922 71.7077 1.61295C71.6879 1.53669 71.6407 1.47037 71.575 1.42667V1.42667C71.3743 1.42667 71.2674 1.53334 71.2674 1.62667L71.0668 2.04001H70.9598C70.8407 2.0852 70.7431 2.17332 70.6861 2.28691C70.6291 2.4005 70.617 2.53128 70.6522 2.65334H70.7592C70.7592 2.74667 70.7592 2.74667 70.8662 2.74667L70.5586 3.05334C70.144 3.26667 69.3282 3.05334 69.2212 2.65334C69.3058 2.6177 69.3798 2.56096 69.436 2.48856C69.4922 2.41617 69.5288 2.33057 69.5422 2.24001C69.5422 2.04001 69.4486 1.84001 69.2346 1.84001V1.33334C69.2346 1.12001 69.141 1.02667 68.927 1.02667C68.713 1.02667 68.7264 1.12001 68.7264 1.33334V1.84001C68.6221 1.84633 68.5237 1.8905 68.4497 1.96419C68.3758 2.03788 68.3315 2.13599 68.3252 2.24001C68.3252 2.34667 68.5258 2.54667 68.6328 2.65334C68.5258 3.05334 67.8036 3.26667 67.2954 3.05334C67.2018 2.96001 67.0948 2.85334 67.0948 2.74667L67.1884 2.66667C67.3891 2.36001 67.0815 2.16001 66.8809 2.05334H66.7739L66.6669 1.64001C66.5733 1.54667 66.4663 1.44001 66.3593 1.44001C66.1587 1.54667 66.0517 1.64001 66.1587 1.85334L66.2657 2.16001C66.1854 2.23634 66.1242 2.3304 66.0871 2.43461C66.0499 2.53882 66.0378 2.65028 66.0517 2.76001C66.1008 2.82377 66.1634 2.87595 66.2351 2.91283C66.3068 2.9497 66.3857 2.97036 66.4663 2.97334C66.4468 3.08164 66.4023 3.18392 66.3362 3.27203C66.2701 3.36015 66.1843 3.43165 66.0856 3.48086C65.9868 3.53006 65.878 3.55561 65.7676 3.55546C65.6573 3.55531 65.5485 3.52947 65.4499 3.48L65.3429 3.37334C65.3937 3.31904 65.4219 3.24757 65.4219 3.17334C65.4219 3.09911 65.3937 3.02764 65.3429 2.97334C65.2272 2.91414 65.0962 2.89136 64.9673 2.90803C64.8383 2.9247 64.7175 2.98002 64.6207 3.06667V3.17334C64.5134 3.06348 64.3721 2.993 64.2195 2.97334C64.0189 2.97334 64.0189 3.17334 64.1125 3.28001C64.297 3.44249 64.5042 3.57724 64.7277 3.68001C64.8413 3.84036 64.9815 3.98015 65.1423 4.09334C65.369 4.41757 65.5745 4.75605 65.7575 5.10667C65.8721 5.33503 65.9704 5.57117 66.0517 5.81334C66.389 5.51693 66.7731 5.27816 67.1884 5.10667C67.7154 4.81588 68.3117 4.67303 68.9136 4.69334V4.68Z" fill="#F0AA1F"/>
<path fill-rule="evenodd" clip-rule="evenodd" d="M81.8993 18.6667C81.6382 18.2594 81.2914 17.9136 80.8829 17.6533C80.6689 17.4533 80.4683 17.3467 80.2677 17.1467C80.5442 17.1219 80.8227 17.1583 81.0835 17.2533C80.5293 16.2295 79.7903 15.3164 78.9036 14.56L79.6124 14.76L76.0684 12C76.0684 11.8933 76.0684 11.8933 75.9748 11.8C75.6368 11.4713 75.2747 11.1683 74.8916 10.8933C74.6936 10.1496 74.3429 9.45496 73.8618 8.85333C73.9688 8.76 74.1694 8.85333 74.2764 8.85333C74.0245 8.55312 73.7095 8.31185 73.3536 8.14667C73.4882 8.04581 73.6534 7.99404 73.8217 8C73.5457 7.70015 73.2411 7.42776 72.9123 7.18667H72.8053C72.8473 7.1508 72.8964 7.124 72.9493 7.10794C73.0022 7.09187 73.0579 7.0869 73.1129 7.09333C72.9822 6.91076 72.8074 6.764 72.6047 6.66667H72.9123C72.2431 5.95099 71.4445 5.36747 70.5585 4.94667C69.9692 4.73383 69.3428 4.64154 68.7169 4.67532C68.0909 4.70909 67.4782 4.86823 66.9153 5.14324C66.3524 5.41825 65.8508 5.80349 65.4405 6.27599C65.0302 6.74848 64.7195 7.29853 64.5271 7.89333C64.478 8.00607 64.4102 8.10974 64.3265 8.2C63.9687 8.42072 63.6817 8.73881 63.4992 9.11679C63.3168 9.49476 63.2465 9.91686 63.2967 10.3333C64.4335 8.90922 66.0151 7.90488 67.7902 7.48C66.1518 8.08027 64.6576 9.01589 63.4037 10.2267C63.4973 10.2267 66.9745 9.10667 67.0814 9.21333C67.1583 9.3709 67.195 9.54491 67.1884 9.72C67.1963 10.132 67.0483 10.5319 66.7738 10.84L66.5732 11.04C64.8347 13.1867 65.4499 14.8133 66.4663 16.7467L67.8972 20.92V19.8L68.5124 21.3333C68.9136 22.2533 69.3282 23.0667 69.7428 24C70.421 25.1918 71.2528 26.29 72.2169 27.2667L71.6017 25.64C72.2186 26.368 72.7566 27.1591 73.2065 28C73.7281 29.0133 73.7281 29.0133 73.1129 29.9333L71.8825 31.76C71.8209 31.9224 71.726 32.0703 71.604 32.1942C71.482 32.3182 71.3355 32.4155 71.1737 32.48C70.9598 32.68 70.6522 32.88 70.3446 33.1867C68.82 33.08 66.9744 32.5733 66.3325 33.8933C66.4251 33.7952 66.537 33.7172 66.6613 33.6644C66.7856 33.6117 66.9196 33.5852 67.0547 33.5867C67.4559 33.8933 67.4559 33.8 67.9775 33.6933C68.5136 33.8124 69.06 33.8793 69.609 33.8933V34.1067L69.9166 33.8C70.2242 34.3067 70.6254 34.1067 71.254 34C71.775 34.0395 72.2985 33.9714 72.7919 33.8C73.4071 34 73.6077 34.1067 74.1293 33.8933C74.9451 34.1067 75.3596 34.5067 75.6672 33.5867C76.0684 33.6933 76.1754 33.8 76.376 34.3067C76.376 33.4933 76.376 33.2933 75.6672 33.2933C75.3596 32.9867 75.159 33.08 74.7444 33.08H74.0357C73.5141 32.7733 74.0357 32.48 74.2363 32.1733L76.2289 29.92C76.7678 29.3695 77.0946 28.6471 77.1517 27.88L79.9066 32.6667L78.7297 29.3333L82.822 34.4267L81.1905 31.2667L88.0377 38.6667C88.3453 38.2533 88.0377 37.96 88.0377 37.5467L87.3155 36.5333L88.1313 37.24C88.1313 37.04 88.2383 36.6267 88.2383 36.32L86.3928 33.7867L88.9605 36.2267L90.592 36.7333L87.7301 33.3333C87.586 33.1093 87.4154 32.9034 87.2219 32.72C86.0909 31.3057 85.0968 29.7879 84.253 28.1867L86.2991 31.24L84.5606 27.3733V27.48C84.7145 26.9124 84.7145 26.3142 84.5606 25.7467C84.0524 24.12 82.822 19.64 81.4981 18.8267C81.5917 18.8267 81.8057 18.72 81.8993 18.72V18.6667ZM68.82 6.41333C68.9136 6.30667 68.9136 6.21333 69.0206 6.10667C69.0182 6.02949 68.999 5.95375 68.9644 5.88469C68.9297 5.81563 68.8805 5.75489 68.82 5.70667C68.82 5.49333 68.6194 5.49333 68.5124 5.4C68.3566 5.42159 68.2115 5.49157 68.0978 5.6C68.0042 5.6 67.8972 5.8 67.8972 5.90667C67.8972 6.01333 67.8972 6.21333 68.0042 6.30667C68.0491 6.37161 68.109 6.42488 68.1788 6.462C68.2486 6.49912 68.3263 6.51901 68.4054 6.52C68.5511 6.52542 68.6952 6.48835 68.82 6.41333V6.41333ZM68.4054 5.70667C68.5121 5.70979 68.6138 5.75254 68.6905 5.82655C68.7672 5.90055 68.8134 6.00046 68.82 6.10667C68.82 6.30667 68.6194 6.41333 68.4054 6.41333C68.364 6.41749 68.3222 6.41242 68.2829 6.39848C68.2437 6.38454 68.2081 6.36208 68.1787 6.33273C68.1492 6.30338 68.1267 6.26787 68.1127 6.22877C68.0987 6.18967 68.0936 6.14797 68.0978 6.10667C68.0978 5.90667 68.2048 5.70667 68.4054 5.70667ZM68.3118 5.90667L68.4054 6.01333C68.4054 6.03809 68.3956 6.06183 68.378 6.07933C68.3604 6.09683 68.3366 6.10667 68.3118 6.10667C68.2048 6.10667 68.0978 6.10667 68.0978 6.01333C68.1555 5.95541 68.2307 5.91794 68.3118 5.90667V5.90667ZM75.159 28.8933C74.6293 30.2082 73.8685 31.4183 72.9123 32.4667C72.2971 33.3733 71.9895 32.8667 72.4977 32.16L75.159 28.8933Z" fill="black"/>
<path fill-rule="evenodd" clip-rule="evenodd" d="M70.3446 6.01334C70.391 6.26155 70.3807 6.51702 70.3145 6.76073C70.2483 7.00444 70.1278 7.23014 69.962 7.42103C69.7963 7.61193 69.5895 7.76311 69.357 7.86335C69.1246 7.96359 68.8724 8.0103 68.6194 8C69.0792 7.89038 69.493 7.63974 69.8025 7.28335C70.112 6.92696 70.3016 6.48278 70.3446 6.01334V6.01334Z" fill="#4C4C4C"/>
<path fill-rule="evenodd" clip-rule="evenodd" d="M66.4663 4.00001C66.521 3.99396 66.5765 4.00004 66.6286 4.0178C66.6808 4.03557 66.7283 4.06459 66.7679 4.1028C66.8075 4.141 66.8382 4.18745 66.8577 4.23883C66.8772 4.2902 66.8851 4.34524 66.8808 4.40001C66.8808 4.45429 66.8701 4.50804 66.8493 4.55819C66.8285 4.60834 66.7979 4.6539 66.7594 4.69228C66.7209 4.73067 66.6752 4.76111 66.6249 4.78188C66.5746 4.80266 66.5207 4.81335 66.4663 4.81335C66.4118 4.81335 66.3579 4.80266 66.3076 4.78188C66.2573 4.76111 66.2116 4.73067 66.1731 4.69228C66.1346 4.6539 66.1041 4.60834 66.0833 4.55819C66.0624 4.50804 66.0517 4.45429 66.0517 4.40001C66.0474 4.34524 66.0553 4.2902 66.0749 4.23883C66.0944 4.18745 66.125 4.141 66.1646 4.1028C66.2042 4.06459 66.2518 4.03557 66.3039 4.0178C66.3561 4.00004 66.4115 3.99396 66.4663 4.00001V4.00001Z" fill="black"/>
<path fill-rule="evenodd" clip-rule="evenodd" d="M68.0978 3.56C68.2057 3.56634 68.3075 3.61192 68.3839 3.68811C68.4603 3.76429 68.5061 3.86578 68.5124 3.97333C68.495 4.06857 68.4447 4.15471 68.3702 4.21673C68.2956 4.27875 68.2016 4.31273 68.1045 4.31273C68.0074 4.31273 67.9134 4.27875 67.8389 4.21673C67.7643 4.15471 67.714 4.06857 67.6966 3.97333C67.7026 3.8679 67.7465 3.76814 67.8201 3.69225C67.8938 3.61637 67.9923 3.56943 68.0978 3.56Z" fill="black"/>
<path fill-rule="evenodd" clip-rule="evenodd" d="M69.7428 3.56C69.8483 3.56943 69.9468 3.61637 70.0205 3.69225C70.0941 3.76814 70.138 3.8679 70.144 3.97333C70.1504 4.02741 70.1445 4.08224 70.1266 4.1337C70.1087 4.18516 70.0794 4.2319 70.0407 4.27041C70.0021 4.30892 69.9552 4.33819 69.9036 4.35601C69.852 4.37384 69.797 4.37976 69.7428 4.37333C69.688 4.37938 69.6326 4.37331 69.5804 4.35554C69.5283 4.33777 69.4807 4.30875 69.4411 4.27055C69.4015 4.23234 69.3709 4.18589 69.3513 4.13452C69.3318 4.08314 69.3239 4.0281 69.3282 3.97333C69.3345 3.86578 69.3803 3.76429 69.4567 3.68811C69.5331 3.61192 69.6349 3.56634 69.7428 3.56V3.56Z" fill="black"/>
<path fill-rule="evenodd" clip-rule="evenodd" d="M71.3743 3.86665C71.5749 3.86665 71.6819 4.07999 71.6819 4.27999C71.6819 4.47999 71.5749 4.67999 71.3743 4.67999C71.3196 4.68604 71.2641 4.67996 71.212 4.6622C71.1598 4.64443 71.1123 4.61541 71.0727 4.5772C71.0331 4.539 71.0024 4.49255 70.9829 4.44117C70.9634 4.3898 70.9555 4.33476 70.9597 4.27999C70.9558 4.22469 70.9638 4.16918 70.9832 4.11724C71.0026 4.06529 71.033 4.01812 71.0723 3.97891C71.1117 3.93971 71.159 3.9094 71.2111 3.89003C71.2632 3.87066 71.3189 3.86269 71.3743 3.86665Z" fill="black"/>
<path fill-rule="evenodd" clip-rule="evenodd" d="M66.4663 4.17334C66.5184 4.1765 66.5676 4.19859 66.6046 4.23543C66.6415 4.27228 66.6637 4.32133 66.6669 4.37334C66.6669 4.42638 66.6457 4.47725 66.6081 4.51476C66.5705 4.55227 66.5195 4.57334 66.4663 4.57334C66.4131 4.57334 66.362 4.55227 66.3244 4.51476C66.2868 4.47725 66.2657 4.42638 66.2657 4.37334C66.2688 4.32133 66.291 4.27228 66.3279 4.23543C66.3649 4.19859 66.4141 4.1765 66.4663 4.17334V4.17334Z" fill="#BA1E00"/>
<path fill-rule="evenodd" clip-rule="evenodd" d="M68.0978 3.77335C68.151 3.77335 68.202 3.79442 68.2397 3.83192C68.2773 3.86943 68.2984 3.9203 68.2984 3.97335C68.2984 4.02639 68.2773 4.07726 68.2397 4.11477C68.202 4.15227 68.151 4.17335 68.0978 4.17335C68.0446 4.17335 67.9936 4.15227 67.956 4.11477C67.9184 4.07726 67.8972 4.02639 67.8972 3.97335C67.8972 3.9203 67.9184 3.86943 67.956 3.83192C67.9936 3.79442 68.0446 3.77335 68.0978 3.77335V3.77335Z" fill="#BA1E00"/>
<path fill-rule="evenodd" clip-rule="evenodd" d="M69.7428 3.77335C69.796 3.77335 69.847 3.79442 69.8846 3.83192C69.9222 3.86943 69.9434 3.9203 69.9434 3.97335C69.9434 4.02639 69.9222 4.07726 69.8846 4.11477C69.847 4.15227 69.796 4.17335 69.7428 4.17335C69.6896 4.17335 69.6385 4.15227 69.6009 4.11477C69.5633 4.07726 69.5422 4.02639 69.5422 3.97335C69.5422 3.9203 69.5633 3.86943 69.6009 3.83192C69.6385 3.79442 69.6896 3.77335 69.7428 3.77335V3.77335Z" fill="#BA1E00"/>
<path fill-rule="evenodd" clip-rule="evenodd" d="M71.3743 4.07999C71.4813 4.07999 71.4813 4.17332 71.4813 4.27999C71.4813 4.38665 71.4813 4.47999 71.3743 4.47999C71.2673 4.47999 71.1737 4.37332 71.1737 4.27999C71.1737 4.18665 71.1737 4.07999 71.3743 4.07999Z" fill="#BA1E00"/>
<path fill-rule="evenodd" clip-rule="evenodd" d="M67.1751 3.86667L67.389 3.97334L67.496 4.08L67.389 4.17334L67.282 4.38667L67.1751 4.28L66.9745 4.17334L67.0814 3.97334L67.1751 3.86667Z" fill="black"/>
<path fill-rule="evenodd" clip-rule="evenodd" d="M68.9136 3.66666L69.0206 3.86666L69.1276 3.97332L69.0206 4.07999L68.9136 4.17332L68.82 4.07999L68.713 3.97332L68.82 3.86666L68.9136 3.66666Z" fill="black"/>
<path fill-rule="evenodd" clip-rule="evenodd" d="M70.6522 3.86667V4.08L70.7591 4.17334L70.6522 4.28L70.5585 4.38667L70.4516 4.17334L70.3446 4.08L70.4516 3.97334L70.6522 3.86667Z" fill="black"/>
<path fill-rule="evenodd" clip-rule="evenodd" d="M72.9123 30.2267C73.1129 30.2267 73.2065 30.4267 73.3135 30.32C73.4205 30.2133 73.6211 30.2267 73.7281 30.0133V29.72C73.8217 29.5067 73.6211 29.3067 73.5141 29.2C73.402 29.4513 73.2677 29.6923 73.1129 29.92L72.9123 30.2267ZM71.8825 31.7467C71.8209 31.9091 71.726 32.057 71.604 32.1809C71.482 32.3049 71.3355 32.4022 71.1737 32.4667C70.9598 32.6667 70.6522 32.8667 70.4516 33.0667C70.251 33.2667 71.2673 32.9733 71.3743 32.76C71.4149 32.6918 71.4743 32.6367 71.5455 32.6012C71.6166 32.5658 71.6965 32.5515 71.7755 32.56C71.9895 32.4667 71.8825 32.16 71.9895 32.0533C72.0965 31.9467 72.0831 31.7467 71.8825 31.7467V31.7467ZM72.3907 31.3467C72.4977 31.44 72.4977 31.44 72.6047 31.3467C72.6046 31.2923 72.6253 31.24 72.6626 31.2003C72.6998 31.1607 72.7509 31.1367 72.8053 31.1333L72.9123 31.04C73.0059 30.9333 73.0059 30.9333 73.0059 30.8267C73.0059 30.72 72.9123 30.6267 72.8053 30.6267C72.6983 30.6267 72.6983 30.5333 72.6983 30.5333L72.2971 31.24L72.3907 31.3467Z" fill="#4C4C4C"/>
<path fill-rule="evenodd" clip-rule="evenodd" d="M74.5439 30.6667C74.7445 30.7733 74.8515 30.9733 74.9451 30.7733C75.0387 30.5733 75.2527 30.7733 75.3596 30.5733C75.4666 30.3733 75.4666 30.36 75.4666 30.2667C75.4666 30.1733 75.3596 29.8533 75.2527 29.76C75.159 29.96 74.9451 30.16 74.7445 30.4667L74.5439 30.6667ZM73.4205 32.2C73.2072 32.4307 72.9644 32.6325 72.6983 32.8C72.3907 33.0133 72.0831 33.1067 71.8825 33.4133C71.8825 33.4133 72.6983 33.32 72.8053 33.1067C72.9477 32.9856 73.1265 32.9152 73.3135 32.9067C73.5141 32.8 73.4205 32.6 73.5141 32.4C73.6077 32.2 73.6211 32.2 73.4205 32.0933V32.2ZM73.9287 31.68C74.0357 31.8933 74.0357 31.8933 74.1293 31.7867C74.1327 31.7324 74.1567 31.6815 74.1965 31.6444C74.2363 31.6072 74.2888 31.5866 74.3433 31.5867C74.4369 31.5867 74.4369 31.48 74.5439 31.48C74.6508 31.48 74.5439 31.3867 74.5439 31.28C74.5439 31.1733 74.5439 31.08 74.4369 31.08C74.3299 31.08 74.3433 30.9733 74.3433 30.9733L73.8217 31.5867C73.8217 31.68 73.9287 31.68 73.9287 31.68V31.68Z" fill="#4C4C4C"/>
<path fill-rule="evenodd" clip-rule="evenodd" d="M81.7923 26.56L87.1149 33.28L82.4075 28.4933L83.0227 28.6933L81.7923 26.56Z" fill="#4C4C4C"/>
<path fill-rule="evenodd" clip-rule="evenodd" d="M82.0063 29.1067L87.7301 36.12L83.8384 32.4533L86.4062 36.0267L79.0374 28.08L82.7151 31.1333L82.0063 29.1067Z" fill="#4C4C4C"/>
<path fill-rule="evenodd" clip-rule="evenodd" d="M64.5271 8C64.5271 8.10667 64.5271 8.2 64.6207 8.2C64.8047 8.16348 64.9811 8.09584 65.1423 8C64.7277 8.50667 64.3265 8.30667 63.6043 9.01333C63.9119 8.61333 64.1125 8.2 64.5271 8Z" fill="#4C4C4C"/>
<path fill-rule="evenodd" clip-rule="evenodd" d="M71.3743 15.5733C71.4813 20 76.7906 26.6667 80.241 24.7333C75.4399 24.32 71.7488 18.8267 71.3476 15.5733H71.3743Z" fill="#4C4C4C"/>
<path fill-rule="evenodd" clip-rule="evenodd" d="M74.2363 15.2667C74.5439 17.2 76.1754 19.2667 78.1146 19.0267C76.5069 18.1317 75.2489 16.7225 74.5439 15.0267C74.8434 16.0061 75.2946 16.9328 75.8812 17.7733C75.2096 17.0525 74.6587 16.2286 74.2496 15.3333L74.2363 15.2667Z" fill="#4C4C4C"/>
<path fill-rule="evenodd" clip-rule="evenodd" d="M73.1129 15.0667V15.3733C73.3937 16.055 73.7338 16.7108 74.1293 17.3333C73.8217 16.92 73.5141 16.4133 73.2065 15.9067C73.6211 17.9333 75.2526 19.9067 77.2186 19.56C76.038 19.0943 75.0585 18.231 74.4502 17.12L74.5572 17.5333L74.049 16.6133C73.7414 16.2133 73.4339 15.6 73.1263 15.0933L73.1129 15.0667Z" fill="#4C4C4C"/>
<path fill-rule="evenodd" clip-rule="evenodd" d="M78.1146 18.0133C78.1272 18.3018 78.1995 18.5846 78.327 18.8439C78.4545 19.1032 78.6345 19.3334 78.8556 19.52C79.0766 19.7066 79.334 19.8455 79.6116 19.9282C79.8891 20.0108 80.1808 20.0352 80.4683 20C79.2379 19.5867 78.9437 18.9867 78.1146 18.0667V18.0133Z" fill="#4C4C4C"/>
<path fill-rule="evenodd" clip-rule="evenodd" d="M71.8825 15.2667C71.8825 19.0267 76.376 24.6 79.3449 22.8933C75.2527 22.6667 72.2169 18.0133 71.8825 15.2667Z" fill="#4C4C4C"/>
<path fill-rule="evenodd" clip-rule="evenodd" d="M72.3907 15.3733C72.3907 18.12 75.6672 22.04 77.7401 20.8667C74.8782 20.76 72.6314 17.4 72.3907 15.3733V15.3733Z" fill="#4C4C4C"/>
<path fill-rule="evenodd" clip-rule="evenodd" d="M76.8976 15.7733C77.4058 17 78.7298 18.2133 79.9601 17.8133C78.7579 17.3983 77.7185 16.6141 76.9912 15.5733C77.3478 16.1827 77.7992 16.7317 78.3285 17.2C77.7777 16.8043 77.2945 16.3225 76.8976 15.7733V15.7733Z" fill="#4C4C4C"/>
<path fill-rule="evenodd" clip-rule="evenodd" d="M75.0521 14.56V14.76C75.2295 15.2357 75.4726 15.6845 75.7742 16.0933L75.1591 15.1733C75.3597 16.4 76.4964 17.84 77.8338 17.6133C77.0849 17.2444 76.4445 16.6887 75.9748 16L76.0685 16.2133L75.7742 15.6C75.5075 15.2814 75.2661 14.9426 75.0521 14.5867V14.56Z" fill="#4C4C4C"/>
<path fill-rule="evenodd" clip-rule="evenodd" d="M77.5663 19.5333C77.7748 20.1778 78.2074 20.7268 78.7861 21.0813C79.3648 21.4358 80.0515 21.5725 80.7224 21.4667C79.5169 21.1229 78.4708 20.3678 77.7669 19.3333C78.0518 19.9351 78.4361 20.485 78.9036 20.96C78.4011 20.5407 77.952 20.0615 77.5663 19.5333V19.5333Z" fill="#4C4C4C"/>
<path fill-rule="evenodd" clip-rule="evenodd" d="M79.0374 18.12C79.4519 19.1333 80.4683 20.0533 81.4981 19.7467C80.5461 19.438 79.7202 18.8297 79.1443 18.0133C79.4549 18.4447 79.7945 18.8545 80.1607 19.24C79.6928 18.9732 79.3049 18.5865 79.0374 18.12V18.12Z" fill="#4C4C4C"/>
<path fill-rule="evenodd" clip-rule="evenodd" d="M79.1444 20.1467C79.7595 21.0667 80.9765 21.68 81.819 21.1733C80.8518 21.079 79.9437 20.6662 79.238 20C79.5756 20.4455 79.9927 20.8252 80.4683 21.12C79.9598 20.9158 79.503 20.6016 79.131 20.2L79.1444 20.1467Z" fill="#4C4C4C"/>
<path fill-rule="evenodd" clip-rule="evenodd" d="M79.3449 23.6133C79.5884 24.0783 80.0021 24.4319 80.5002 24.6007C80.9982 24.7696 81.5424 24.7406 82.0196 24.52C81.0227 24.4765 80.0741 24.0793 79.3449 23.4C79.7281 23.7731 80.1394 24.1164 80.5753 24.4267C80.1443 24.1883 79.7329 23.9163 79.3449 23.6133V23.6133Z" fill="#4C4C4C"/>
<path fill-rule="evenodd" clip-rule="evenodd" d="M80.3747 21.9867C80.6376 22.455 81.0596 22.8144 81.5646 23.0002C82.0697 23.1859 82.6246 23.1859 83.1296 23C82.1209 22.9182 81.1736 22.4838 80.4549 21.7733C80.8176 22.1684 81.2314 22.5137 81.6853 22.8C81.2202 22.5618 80.7732 22.29 80.348 21.9867H80.3747Z" fill="#4C4C4C"/>
<path fill-rule="evenodd" clip-rule="evenodd" d="M77.807 20.76C78.0711 21.2903 78.4614 21.7481 78.9438 22.0933C78.5292 22.0933 78.2216 21.6933 78.021 21.3867C78.2599 22.0222 78.7232 22.549 79.324 22.8681C79.9248 23.1873 80.6218 23.2768 81.2841 23.12C80.4232 22.9605 79.6359 22.5306 79.0374 21.8933L79.238 22.2L78.7298 21.6933C78.4784 21.3354 78.1661 21.024 77.807 20.7733V20.76Z" fill="#4C4C4C"/>
<path fill-rule="evenodd" clip-rule="evenodd" d="M70.6522 16C70.6522 21.4 77.0982 29.2267 81.1905 26.8933C75.4666 26.56 71.0667 20 70.6522 16Z" fill="#4C4C4C"/>
<path fill-rule="evenodd" clip-rule="evenodd" d="M81.4981 25.3333C81.7568 25.806 82.1777 26.17 82.6836 26.3585C83.1896 26.5471 83.7467 26.5476 84.253 26.36C83.2443 26.2782 82.297 25.8438 81.5783 25.1333C81.9138 25.5522 82.3327 25.8973 82.8087 26.1467C82.3262 25.9406 81.8759 25.6667 81.4713 25.3333H81.4981Z" fill="#4C4C4C"/>
<path fill-rule="evenodd" clip-rule="evenodd" d="M81.3911 23.6133C82.0063 24.4267 83.2366 25.1333 84.0658 24.6267C83.1068 24.4934 82.2137 24.0645 81.5114 23.4C81.8441 23.8199 82.258 24.169 82.7284 24.4267C82.2504 24.2122 81.8011 23.939 81.3911 23.6133V23.6133Z" fill="#4C4C4C"/>
<path fill-rule="evenodd" clip-rule="evenodd" d="M81.0835 21.68C81.285 22.0207 81.6014 22.2788 81.9763 22.4083C82.3511 22.5377 82.7599 22.5301 83.1296 22.3867C82.3566 22.3441 81.6272 22.0161 81.0835 21.4667C81.3756 21.7912 81.7189 22.0659 82.0999 22.28C81.7282 22.1415 81.3841 21.9383 81.0835 21.68V21.68Z" fill="#4C4C4C"/>
<path fill-rule="evenodd" clip-rule="evenodd" d="M80.5753 20C80.7727 20.371 81.0984 20.6579 81.4919 20.8075C81.8855 20.9571 82.3201 20.9592 82.7151 20.8133C81.9637 20.7658 81.247 20.4809 80.6689 20C80.9041 20.3432 81.2212 20.6227 81.5917 20.8133C81.2182 20.6317 80.8754 20.3933 80.5753 20.1067V20Z" fill="#4C4C4C"/>
<path fill-rule="evenodd" clip-rule="evenodd" d="M79.8531 18.2133C79.9511 18.4996 80.1507 18.7402 80.4142 18.89C80.6778 19.0398 80.9871 19.0884 81.2841 19.0267C80.7415 18.8424 80.2508 18.5316 79.8531 18.12C80.0349 18.3747 80.241 18.6114 80.4683 18.8267L79.8531 18.2133V18.2133Z" fill="#4C4C4C"/>
<path fill-rule="evenodd" clip-rule="evenodd" d="M77.5663 14.96C77.9675 15.88 79.0909 16.7867 80.0136 16.4933C79.0865 16.1913 78.2927 15.5789 77.7669 14.76C77.9751 15.2652 78.2898 15.7199 78.6896 16.0933C78.2857 15.7506 77.91 15.3761 77.5663 14.9733V14.96Z" fill="#4C4C4C"/>
<path fill-rule="evenodd" clip-rule="evenodd" d="M78.6361 25.3333C78.6361 25.3333 78.6361 25.44 78.7298 25.44C79.0137 25.6486 79.3239 25.8189 79.6525 25.9467C79.3539 25.9382 79.0667 25.8302 78.8367 25.64C79.1495 26.0275 79.5904 26.2913 80.0806 26.3841C80.5707 26.477 81.0779 26.3928 81.5114 26.1467C80.8808 26.2273 80.2402 26.1255 79.6659 25.8533L79.8665 25.9467L79.4653 25.7467C79.1577 25.64 78.9571 25.44 78.6495 25.3333H78.6361Z" fill="#4C4C4C"/>
<path fill-rule="evenodd" clip-rule="evenodd" d="M71.9895 7.84C72.0791 7.99905 72.1466 8.16949 72.1901 8.34666C72.0831 8.34666 71.8825 8.14666 71.7755 8.04C71.8825 8.14666 71.9895 8.14666 72.0831 8.24C72.0831 8.04 72.0831 7.94666 71.9895 7.84V7.84Z" fill="#4C4C4C"/>
<path fill-rule="evenodd" clip-rule="evenodd" d="M72.6983 8.75999C72.7987 8.91518 72.8711 9.08665 72.9123 9.26666C72.8053 9.26666 72.4977 9.05333 72.4977 8.95999C72.4977 8.86666 72.6983 9.05333 72.8053 9.15999C72.8053 8.95999 72.6983 8.85333 72.6983 8.75999V8.75999Z" fill="#4C4C4C"/>
<path fill-rule="evenodd" clip-rule="evenodd" d="M72.6983 7.84C72.8164 8.02511 72.8897 8.2351 72.9123 8.45333C72.8053 8.45333 72.6047 8.24 72.4977 8.04C72.6047 8.14666 72.6983 8.24 72.8053 8.24C72.9123 8.24 72.6983 8.04 72.6983 7.84V7.84Z" fill="#4C4C4C"/>
<path fill-rule="evenodd" clip-rule="evenodd" d="M72.0831 8.45334C72.202 8.63317 72.2754 8.83904 72.2971 9.05334C72.1333 8.94916 71.9923 8.81311 71.8825 8.65334C71.9895 8.76001 72.0831 8.85334 72.1901 8.85334C72.2971 8.85334 72.1901 8.54667 72.0831 8.45334V8.45334Z" fill="#4C4C4C"/>
<path fill-rule="evenodd" clip-rule="evenodd" d="M71.4813 8C71.59 8.18844 71.6583 8.39727 71.6819 8.61333C71.5749 8.50667 71.3743 8.41333 71.2673 8.2C71.3743 8.30667 71.4813 8.41333 71.5749 8.41333C71.5803 8.26979 71.548 8.12733 71.4813 8V8Z" fill="#4C4C4C"/>
<path fill-rule="evenodd" clip-rule="evenodd" d="M71.6819 8.75999C71.7736 8.91803 71.8412 9.08878 71.8825 9.26666C71.7755 9.26666 71.4813 9.15999 71.4813 8.95999C71.4813 9.05333 71.5749 9.05333 71.7755 9.15999C71.7105 9.03684 71.6783 8.89912 71.6819 8.75999Z" fill="#4C4C4C"/>
<path fill-rule="evenodd" clip-rule="evenodd" d="M72.2971 9.16C72.3867 9.31905 72.4542 9.4895 72.4977 9.66667C72.3907 9.66667 72.0831 9.57334 72.0831 9.36C72.1901 9.46667 72.2971 9.57334 72.3907 9.57334C72.3907 9.36 72.2971 9.26667 72.2971 9.16V9.16Z" fill="#4C4C4C"/>
<path fill-rule="evenodd" clip-rule="evenodd" d="M73.2065 9.05333C73.4205 9.05333 73.5141 9.46666 73.4205 9.57333C73.258 9.4621 73.1175 9.32199 73.0059 9.16C73.1129 9.26666 73.2065 9.36 73.3135 9.36C73.32 9.30415 73.3137 9.24756 73.2952 9.19446C73.2767 9.14136 73.2464 9.09312 73.2065 9.05333V9.05333Z" fill="#4C4C4C"/>
<path fill-rule="evenodd" clip-rule="evenodd" d="M73.0059 9.46666C73.1013 9.62288 73.1692 9.79425 73.2065 9.97333C73.1129 9.97333 72.8053 9.77333 72.8053 9.66666C72.9123 9.77333 73.0059 9.77333 73.1129 9.87999C73.1129 9.66666 73.0059 9.57333 73.0059 9.46666Z" fill="#4C4C4C"/>
<path fill-rule="evenodd" clip-rule="evenodd" d="M71.9895 9.77333C72.0791 9.93238 72.1466 10.1028 72.1901 10.28C72.0831 10.28 71.8825 10.08 71.7755 9.97333C71.8154 10.0131 71.8638 10.0433 71.9171 10.0617C71.9704 10.0802 72.0271 10.0865 72.0831 10.08C72.0896 10.0252 72.0846 9.96968 72.0685 9.91691C72.0524 9.86413 72.0255 9.81525 71.9895 9.77333V9.77333Z" fill="#4C4C4C"/>
<path fill-rule="evenodd" clip-rule="evenodd" d="M71.3743 9.33333C71.4718 9.48853 71.5398 9.66027 71.5749 9.84C71.4813 9.84 71.2674 9.64 71.1737 9.53333C71.2674 9.64 71.3743 9.64 71.4813 9.73333C71.4813 9.53333 71.3743 9.42666 71.3743 9.33333Z" fill="#4C4C4C"/>
<path fill-rule="evenodd" clip-rule="evenodd" d="M71.0667 8.45334C71.1642 8.60854 71.2322 8.78028 71.2673 8.96001C71.1035 8.90442 70.9625 8.79666 70.8661 8.65334C70.9598 8.76001 71.0667 8.76001 71.1737 8.85334C71.1737 8.65334 71.1737 8.54667 71.0667 8.45334Z" fill="#4C4C4C"/>
<path fill-rule="evenodd" clip-rule="evenodd" d="M70.6522 8.85333C70.7524 9.00063 70.8291 9.16256 70.8795 9.33333C70.7725 9.33333 70.4649 9.23999 70.4649 9.02666C70.5719 9.13333 70.6655 9.23999 70.7725 9.23999C70.8795 9.23999 70.6655 8.93333 70.6655 8.82666L70.6522 8.85333Z" fill="#4C4C4C"/>
<path fill-rule="evenodd" clip-rule="evenodd" d="M71.0667 9.88C71.1642 10.0352 71.2322 10.2069 71.2673 10.3867C71.1807 10.3714 71.099 10.3356 71.0292 10.2822C70.9594 10.2288 70.9034 10.1595 70.8661 10.08C70.9598 10.1733 71.0667 10.28 71.1737 10.28C71.1906 10.1379 71.1523 9.99482 71.0667 9.88V9.88Z" fill="#4C4C4C"/>
<path fill-rule="evenodd" clip-rule="evenodd" d="M70.5585 9.46666C70.6672 9.65509 70.7355 9.86393 70.7591 10.08C70.6522 10.08 70.4516 9.87999 70.3446 9.66666C70.4516 9.77333 70.5586 9.87999 70.6522 9.87999C70.7458 9.87999 70.5585 9.66666 70.5585 9.46666V9.46666Z" fill="#4C4C4C"/>
<path fill-rule="evenodd" clip-rule="evenodd" d="M70.0504 8.85333C70.159 9.04177 70.2273 9.2506 70.251 9.46667C70.144 9.36 69.9434 9.26667 69.8364 9.05333C69.9434 9.16 70.0504 9.26667 70.144 9.26667C70.1577 9.12246 70.1249 8.97765 70.0504 8.85333V8.85333Z" fill="#4C4C4C"/>
<path fill-rule="evenodd" clip-rule="evenodd" d="M69.5422 9.16C69.6492 9.16 69.7561 9.66667 69.7561 9.66667C69.7561 9.66667 69.4485 9.46667 69.3416 9.36C69.3809 9.40056 69.4292 9.43135 69.4826 9.44987C69.536 9.4684 69.5931 9.47415 69.6492 9.46667C69.6567 9.41077 69.6509 9.3539 69.6323 9.30063C69.6137 9.24736 69.5828 9.19919 69.5422 9.16Z" fill="#4C4C4C"/>
<path fill-rule="evenodd" clip-rule="evenodd" d="M69.9434 9.77333C70.0504 9.77333 70.144 10.28 70.144 10.28C70.144 10.28 69.8364 10.08 69.7428 9.97333C69.6492 9.86666 69.9434 10.08 70.0504 10.08C70.1573 10.08 69.9434 9.88 69.9434 9.77333V9.77333Z" fill="#4C4C4C"/>
<path fill-rule="evenodd" clip-rule="evenodd" d="M70.6522 10.28C70.7503 10.4364 70.8225 10.6074 70.8661 10.7867C70.7592 10.7867 70.4516 10.5867 70.4516 10.48C70.5586 10.5867 70.6522 10.5867 70.7592 10.6933C70.7592 10.48 70.6522 10.3867 70.6522 10.28V10.28Z" fill="#4C4C4C"/>
<path fill-rule="evenodd" clip-rule="evenodd" d="M71.2673 10.9867C71.3661 11.1474 71.4384 11.323 71.4813 11.5067C71.3743 11.5067 71.0667 11.2933 71.0667 11.2C71.0667 11.1067 71.2673 11.2933 71.3743 11.4C71.3743 11.2 71.2673 11.0933 71.2673 10.9867V10.9867Z" fill="#4C4C4C"/>
<path fill-rule="evenodd" clip-rule="evenodd" d="M72.6983 9.97333C72.8164 10.1584 72.8897 10.3684 72.9123 10.5867C72.8053 10.48 72.4977 10.3867 72.4977 10.1733C72.6047 10.28 72.6983 10.3867 72.8053 10.3867C72.9123 10.3867 72.6983 10.08 72.6983 9.97333V9.97333Z" fill="#4C4C4C"/>
<path fill-rule="evenodd" clip-rule="evenodd" d="M73.9287 9.77333C74.0449 9.95832 74.1138 10.1689 74.1293 10.3867C74.0357 10.3867 73.7281 10.1733 73.7281 9.97333C73.8001 10.0779 73.9107 10.1498 74.0357 10.1733C74.0357 10.08 73.9287 9.97333 73.9287 9.77333V9.77333Z" fill="#4C4C4C"/>
<path fill-rule="evenodd" clip-rule="evenodd" d="M73.6211 10.28C73.7165 10.4362 73.7843 10.6076 73.8217 10.7867C73.7342 10.7737 73.6515 10.7387 73.5813 10.685C73.5111 10.6314 73.4558 10.5608 73.4205 10.48C73.5141 10.5867 73.6211 10.6933 73.7281 10.6933C73.7281 10.48 73.7281 10.3867 73.6211 10.28Z" fill="#4C4C4C"/>
<path fill-rule="evenodd" clip-rule="evenodd" d="M74.2362 10.5867C74.4368 10.6933 74.5438 11.0933 74.4368 11.0933C74.273 11.0377 74.132 10.93 74.0356 10.7867C74.1293 10.8933 74.2362 10.8933 74.4368 10.9867C74.3432 10.7867 74.3432 10.6933 74.2362 10.5867Z" fill="#4C4C4C"/>
<path fill-rule="evenodd" clip-rule="evenodd" d="M73.8217 10.9867C73.9205 11.1474 73.9927 11.323 74.0357 11.5067C73.9287 11.5067 73.6211 11.4 73.6211 11.2C73.6211 11.2933 73.7281 11.2933 73.9287 11.4C73.8534 11.2755 73.8163 11.1319 73.8217 10.9867V10.9867Z" fill="#4C4C4C"/>
<path fill-rule="evenodd" clip-rule="evenodd" d="M73.1129 10.48C73.2215 10.6684 73.2898 10.8773 73.3135 11.0933C73.2065 11.0933 73.0059 10.8933 72.9123 10.6933C73.0059 10.7867 73.1129 10.8933 73.2065 10.8933C73.3001 10.8933 73.1129 10.6933 73.1129 10.48Z" fill="#4C4C4C"/>
<path fill-rule="evenodd" clip-rule="evenodd" d="M71.6819 10.28C71.7715 10.439 71.839 10.6095 71.8825 10.7867C71.7755 10.7867 71.4813 10.6933 71.4813 10.48C71.5749 10.5867 71.6819 10.6933 71.7755 10.6933C71.8692 10.6933 71.6819 10.3867 71.6819 10.28Z" fill="#4C4C4C"/>
<path fill-rule="evenodd" clip-rule="evenodd" d="M69.1276 9.16C69.1276 9.36 68.9136 9.66667 68.82 9.66667C68.7619 9.50275 68.7619 9.32392 68.82 9.16C68.8062 9.30421 68.839 9.44902 68.9136 9.57334C68.9776 9.52437 69.0299 9.46194 69.0669 9.39049C69.1039 9.31905 69.1246 9.24035 69.1276 9.16V9.16Z" fill="#4C4C4C"/>
<path fill-rule="evenodd" clip-rule="evenodd" d="M68.713 9.33333C68.713 9.53333 68.4054 9.84 68.4054 9.84C68.354 9.675 68.354 9.49832 68.4054 9.33333V9.73333C68.5371 9.62503 68.6423 9.48823 68.713 9.33333V9.33333Z" fill="#4C4C4C"/>
<path fill-rule="evenodd" clip-rule="evenodd" d="M68.0978 9.46666C68.2048 9.57333 67.8972 9.97333 67.8972 9.97333C67.8449 9.89917 67.8167 9.81069 67.8167 9.71999C67.8167 9.6293 67.8449 9.54082 67.8972 9.46666V9.77333C68.0042 9.66666 68.0978 9.57333 68.0978 9.46666Z" fill="#4C4C4C"/>
<path fill-rule="evenodd" clip-rule="evenodd" d="M67.5896 10.08C67.5896 10.1733 67.389 10.48 67.282 10.48V9.97333C67.282 10.1733 67.282 10.28 67.389 10.3867C67.4826 10.28 67.5896 10.1733 67.5896 10.08Z" fill="#4C4C4C"/>
<path fill-rule="evenodd" clip-rule="evenodd" d="M68.0978 10.08C68.2048 10.28 67.8972 10.5867 67.8972 10.5867C67.8972 10.5867 67.7902 10.28 67.8972 10.08V10.48C67.9599 10.4338 68.0107 10.3735 68.0456 10.304C68.0805 10.2345 68.0984 10.1577 68.0978 10.08V10.08Z" fill="#4C4C4C"/>
<path fill-rule="evenodd" clip-rule="evenodd" d="M68.4054 10.48C68.4054 10.6933 68.0978 10.9867 68.0978 10.9867C68.0519 10.9101 68.0276 10.8226 68.0276 10.7333C68.0276 10.6441 68.0519 10.5566 68.0978 10.48V10.7867L68.4054 10.48V10.48Z" fill="#4C4C4C"/>
<path fill-rule="evenodd" clip-rule="evenodd" d="M68.713 9.88C68.82 10.08 68.5124 10.3867 68.5124 10.3867C68.5124 10.3867 68.4054 10.08 68.5124 9.88V10.28C68.618 10.1697 68.6879 10.0304 68.713 9.88V9.88Z" fill="#4C4C4C"/>
<path fill-rule="evenodd" clip-rule="evenodd" d="M69.1276 10.5867C69.1276 10.6933 68.9136 11.0933 68.82 11.0933C68.7264 11.0933 68.713 10.6933 68.82 10.48C68.82 10.6933 68.82 10.7867 68.9136 10.8933C69.0206 10.7867 69.1276 10.6933 69.1276 10.5867V10.5867Z" fill="#4C4C4C"/>
<path fill-rule="evenodd" clip-rule="evenodd" d="M68.713 10.9867C68.713 11.2 68.5124 11.5067 68.4054 11.5067C68.2984 11.5067 68.3118 11.0933 68.4054 10.9867C68.3968 11.0426 68.402 11.0998 68.4207 11.1533C68.4393 11.2067 68.4708 11.2548 68.5124 11.2933C68.6173 11.2215 68.6894 11.1113 68.713 10.9867Z" fill="#4C4C4C"/>
<path fill-rule="evenodd" clip-rule="evenodd" d="M69.5422 9.88C69.5422 9.97333 69.2346 10.28 69.2346 10.3867C69.1868 10.185 69.1868 9.975 69.2346 9.77333V10.1733L69.5422 9.88Z" fill="#4C4C4C"/>
<path fill-rule="evenodd" clip-rule="evenodd" d="M69.7428 10.48C69.7428 10.6933 69.5288 10.9867 69.4352 10.9867C69.3759 10.8229 69.3759 10.6437 69.4352 10.48C69.4214 10.6242 69.4542 10.769 69.5288 10.8933C69.6358 10.7867 69.6358 10.6933 69.7428 10.48Z" fill="#4C4C4C"/>
<path fill-rule="evenodd" clip-rule="evenodd" d="M69.3282 11.4C69.3282 11.5067 69.1276 11.9067 69.0206 11.9067C68.9136 11.9067 68.9136 11.5067 69.0206 11.4C69.0131 11.4559 69.0189 11.5128 69.0375 11.566C69.056 11.6193 69.0869 11.6675 69.1276 11.7067C69.2212 11.6 69.3282 11.5067 69.3282 11.4Z" fill="#4C4C4C"/>
<path fill-rule="evenodd" clip-rule="evenodd" d="M72.3907 7.13333C72.5096 7.31317 72.583 7.51904 72.6047 7.73333C72.4977 7.73333 72.1901 7.53333 72.1901 7.33333C72.2971 7.42666 72.3907 7.53333 72.4977 7.53333C72.6047 7.53333 72.3907 7.33333 72.3907 7.13333V7.13333Z" fill="#4C4C4C"/>
<path fill-rule="evenodd" clip-rule="evenodd" d="M73.3135 8.34666C73.4297 8.53166 73.4986 8.74226 73.5141 8.96C73.4205 8.96 73.2065 8.76 73.1129 8.54666C73.2065 8.65333 73.3135 8.76 73.4205 8.76C73.4259 8.61478 73.3887 8.47113 73.3135 8.34666V8.34666Z" fill="#4C4C4C"/>
<path fill-rule="evenodd" clip-rule="evenodd" d="M72.2169 11.2933V11.5067C72.327 11.9969 72.4977 12.4716 72.7251 12.92C72.5318 12.5946 72.362 12.256 72.2169 11.9067C72.3238 13.24 73.3402 14.76 74.6642 14.76C73.9326 14.2735 73.3386 13.6078 72.939 12.8267L73.0326 13.1333L72.7251 12.52C72.5828 12.1004 72.4131 11.6907 72.2169 11.2933V11.2933Z" fill="#4C4C4C"/>
<path fill-rule="evenodd" clip-rule="evenodd" d="M70.4516 12.1067C70.4516 13.44 71.2674 14.96 72.6983 14.96C71.361 14.1467 71.1737 13.2267 70.6522 11.9067C70.7492 12.5805 70.957 13.2337 71.2674 13.84C70.8948 13.3148 70.6186 12.728 70.4516 12.1067V12.1067Z" fill="#4C4C4C"/>
<path fill-rule="evenodd" clip-rule="evenodd" d="M73.8217 12.32C74.1293 13.6533 75.3596 14.9867 76.6836 14.6533C75.5167 14.1485 74.5684 13.2456 74.0089 12.1067C74.264 12.7624 74.6058 13.3812 75.0253 13.9467C74.5641 13.4448 74.1521 12.9001 73.795 12.32H73.8217Z" fill="#4C4C4C"/>
<path fill-rule="evenodd" clip-rule="evenodd" d="M75.0521 11.8133C75.3597 13.1467 76.59 14.48 77.914 14.2533C76.7705 13.7139 75.8324 12.8207 75.2393 11.7067C75.5067 12.326 75.8528 12.9085 76.2691 13.44C75.7778 12.9638 75.3628 12.4152 75.0387 11.8133H75.0521Z" fill="#4C4C4C"/>
<path fill-rule="evenodd" clip-rule="evenodd" d="M66.9744 12.2133C66.2657 13.44 66.1587 15.16 67.1884 15.88C66.8209 14.6852 66.8209 13.4081 67.1884 12.2133C66.963 12.8792 66.7886 13.5611 66.6669 14.2533C66.6697 13.5621 66.7733 12.8749 66.9744 12.2133V12.2133Z" fill="#4C4C4C"/>
<path fill-rule="evenodd" clip-rule="evenodd" d="M68.0978 13.2267C68.0843 13.2265 68.071 13.2293 68.0586 13.2348C68.0463 13.2403 68.0353 13.2484 68.0264 13.2585C68.0175 13.2687 68.0109 13.2806 68.0071 13.2935C68.0033 13.3064 68.0023 13.32 68.0042 13.3333C67.8812 13.7316 67.8093 14.1437 67.7903 14.56V13.64C67.4967 14.1001 67.3772 14.6494 67.4532 15.1895C67.5291 15.7295 67.7956 16.2248 68.2048 16.5867C67.9678 15.9383 67.8632 15.2492 67.8972 14.56V14.76L68.0042 14.2533C68.0042 13.9467 68.0978 13.5333 68.0978 13.2267Z" fill="#4C4C4C"/>
<path fill-rule="evenodd" clip-rule="evenodd" d="M69.0206 12.2133C69.0206 12.2416 69.0093 12.2688 68.9892 12.2888C68.9692 12.3088 68.942 12.32 68.9136 12.32V13.5333C68.8369 13.2375 68.8053 12.9319 68.82 12.6267C68.5124 13.64 68.713 15.0667 69.7428 15.4667C69.3049 14.9203 69.0857 14.2315 69.1276 13.5333L69.0206 13.84V12.2133Z" fill="#4C4C4C"/>
<path fill-rule="evenodd" clip-rule="evenodd" d="M69.9434 12.72L69.8364 12.8267C69.8556 13.2385 69.9275 13.6463 70.0504 14.04C69.9263 13.7526 69.8538 13.4457 69.8364 13.1333C69.6916 13.646 69.7496 14.1945 69.9984 14.6659C70.2472 15.1372 70.6679 15.4954 71.1738 15.6667C70.703 15.1964 70.382 14.5981 70.251 13.9467V14.2533L70.144 13.64C70.0504 13.44 70.0504 13.0267 69.9434 12.72V12.72Z" fill="#4C4C4C"/>
<path fill-rule="evenodd" clip-rule="evenodd" d="M67.6966 17.7067C67.8804 18.0529 67.9854 18.4353 68.0042 18.8267C67.8972 18.72 67.389 18.4267 67.282 18.0133C67.4826 18.2133 67.5896 18.4267 67.7902 18.52C67.8055 18.2456 67.7738 17.9705 67.6966 17.7067V17.7067Z" fill="#4C4C4C"/>
<path fill-rule="evenodd" clip-rule="evenodd" d="M68.9136 18.4267C69.1276 18.6267 69.1276 19.3333 69.1276 19.44C68.8147 19.2848 68.5611 19.032 68.4054 18.72C68.5863 18.8906 68.7941 19.0303 69.0206 19.1333C69.0206 18.9333 68.9136 18.6267 68.9136 18.4267Z" fill="#4C4C4C"/>
<path fill-rule="evenodd" clip-rule="evenodd" d="M68.6194 19.64C68.82 19.7467 68.9136 20.56 68.82 20.6533C68.7264 20.7467 68.2048 20.2533 68.2048 20C68.326 20.185 68.5044 20.3255 68.713 20.4C68.713 20.1067 68.6194 19.8933 68.6194 19.6933V19.64Z" fill="#4C4C4C"/>
<path fill-rule="evenodd" clip-rule="evenodd" d="M70.0504 19.3333C70.2151 19.6482 70.3152 19.9927 70.3446 20.3467C70.144 20.3467 69.7428 19.9467 69.6358 19.64C69.7809 19.805 69.9527 19.9447 70.144 20.0533C70.16 19.8095 70.1282 19.565 70.0504 19.3333V19.3333Z" fill="#4C4C4C"/>
<path fill-rule="evenodd" clip-rule="evenodd" d="M70.144 16.28C70.3446 16.4933 70.4516 17.3067 70.3446 17.3067C70.2376 17.3067 69.7428 16.8933 69.7428 16.5867C69.7858 16.6926 69.8549 16.786 69.9438 16.8582C70.0326 16.9305 70.1382 16.9792 70.251 17C70.2681 16.7551 70.2316 16.5094 70.144 16.28V16.28Z" fill="#4C4C4C"/>
<path fill-rule="evenodd" clip-rule="evenodd" d="M69.6358 21.4667C69.7369 21.6155 69.8068 21.7831 69.8413 21.9596C69.8757 22.136 69.8741 22.3176 69.8364 22.4933C69.5615 22.3226 69.3466 22.071 69.2212 21.7733C69.3435 21.9656 69.5273 22.1112 69.7428 22.1867C69.759 21.9418 69.7225 21.6963 69.6358 21.4667Z" fill="#4C4C4C"/>
<path fill-rule="evenodd" clip-rule="evenodd" d="M69.7428 20.3467C69.9434 20.4533 69.9434 21.2667 69.9434 21.3733C69.8364 21.2667 69.3282 20.96 69.3282 20.6533C69.478 20.8135 69.649 20.9525 69.8364 21.0667C69.8364 20.76 69.7428 20.56 69.7428 20.3467V20.3467Z" fill="#4C4C4C"/>
<path fill-rule="evenodd" clip-rule="evenodd" d="M70.8795 20.6533C71.0801 20.8667 71.1871 21.68 71.0801 21.68C70.9301 21.6136 70.7969 21.5144 70.6904 21.3898C70.5839 21.2651 70.5069 21.1183 70.4649 20.96C70.508 21.0659 70.5771 21.1593 70.6659 21.2316C70.7548 21.3038 70.8604 21.3526 70.9731 21.3733C70.9819 21.1298 70.9503 20.8866 70.8795 20.6533V20.6533Z" fill="#4C4C4C"/>
<path fill-rule="evenodd" clip-rule="evenodd" d="M71.1737 22.28C71.3743 22.4933 71.3743 23.2 71.3743 23.3067C71.3743 23.4133 70.7592 22.8933 70.7592 22.5867C70.8788 22.776 71.0573 22.9211 71.2674 23C71.2674 22.8 71.1737 22.4933 71.1737 22.28Z" fill="#4C4C4C"/>
<path fill-rule="evenodd" clip-rule="evenodd" d="M70.7592 23.7067C70.9598 23.8133 71.0667 24.6267 71.0667 24.7333C70.7562 24.5687 70.504 24.3126 70.3446 24C70.5585 24.1067 70.6522 24.3067 70.8661 24.4133C70.8906 24.1682 70.8538 23.9209 70.7592 23.6933V23.7067Z" fill="#4C4C4C"/>
<path fill-rule="evenodd" clip-rule="evenodd" d="M73.0059 23.4C73.1856 23.7144 73.2908 24.0655 73.3135 24.4267C73.1129 24.4267 72.6983 24.0133 72.6047 23.7067C72.7463 23.8753 72.9187 24.0156 73.1129 24.12C73.1292 23.8751 73.0927 23.6296 73.0059 23.4V23.4Z" fill="#4C4C4C"/>
<path fill-rule="evenodd" clip-rule="evenodd" d="M72.2169 24.2133C72.4175 24.4267 72.4175 25.24 72.4175 25.24C72.4175 25.24 71.8023 24.9333 71.8023 24.52C71.8454 24.6283 71.9162 24.7235 72.0077 24.796C72.0993 24.8686 72.2083 24.9159 72.3239 24.9333C72.3239 24.7333 72.2169 24.52 72.2169 24.2133Z" fill="#4C4C4C"/>
<path fill-rule="evenodd" clip-rule="evenodd" d="M74.4369 24.9333C74.6046 25.2479 74.7091 25.5921 74.7444 25.9467C74.5733 25.9038 74.4169 25.8154 74.2921 25.691C74.1673 25.5665 74.0787 25.4107 74.0356 25.24C74.2362 25.44 74.3432 25.64 74.5438 25.7467C74.561 25.4712 74.5246 25.1951 74.4369 24.9333Z" fill="#4C4C4C"/>
<path fill-rule="evenodd" clip-rule="evenodd" d="M73.2065 25.5467C73.4205 25.7467 73.4205 26.56 73.4205 26.56C73.4205 26.56 72.8053 26.1467 72.8053 25.8533C72.9298 26.0352 73.1072 26.1748 73.3135 26.2533C73.3135 26.0533 73.2065 25.7467 73.2065 25.5467Z" fill="#4C4C4C"/>
<path fill-rule="evenodd" clip-rule="evenodd" d="M75.4666 26.36C75.6344 26.6746 75.7389 27.0188 75.7742 27.3733C75.4645 27.22 75.2116 26.9726 75.0521 26.6667C75.2527 26.8667 75.3597 27.0667 75.6672 27.0667C75.6444 26.8208 75.5764 26.5813 75.4666 26.36Z" fill="#4C4C4C"/>
<path fill-rule="evenodd" clip-rule="evenodd" d="M74.3433 26.4533C74.5071 26.7733 74.607 27.122 74.6375 27.48C74.4744 27.4177 74.3268 27.3212 74.2045 27.1969C74.0822 27.0727 73.9881 26.9237 73.9287 26.76C74.1293 26.96 74.2363 27.1733 74.4369 27.1733C74.4464 26.9298 74.4147 26.6864 74.3433 26.4533Z" fill="#4C4C4C"/>
<path fill-rule="evenodd" clip-rule="evenodd" d="M73.9287 27.5733C74.0298 27.7221 74.0997 27.8898 74.1342 28.0662C74.1687 28.2427 74.167 28.4242 74.1293 28.6C73.8544 28.4293 73.6395 28.1777 73.5141 27.88C73.6638 28.0456 73.8401 28.1853 74.0357 28.2933C74.0528 28.0484 74.0163 27.8028 73.9287 27.5733V27.5733Z" fill="#4C4C4C"/>
<path fill-rule="evenodd" clip-rule="evenodd" d="M71.1737 19.64C71.2731 19.7871 71.342 19.9525 71.3765 20.1265C71.4109 20.3005 71.4102 20.4796 71.3743 20.6533C71.2673 20.56 70.7592 20.2533 70.7592 19.9467C70.8803 20.1317 71.0587 20.2721 71.2674 20.3467C71.2674 20.0533 71.1737 19.84 71.1737 19.64V19.64Z" fill="#4C4C4C"/>
<path fill-rule="evenodd" clip-rule="evenodd" d="M72.0832 21.88C72.2684 22.1871 72.3741 22.5354 72.3907 22.8933C72.082 22.7433 71.8324 22.4945 71.6819 22.1867C71.8236 22.3517 71.9962 22.4876 72.1901 22.5867C72.2158 22.3459 72.1789 22.1025 72.0832 21.88Z" fill="#4C4C4C"/>
<path fill-rule="evenodd" clip-rule="evenodd" d="M70.0504 17.7067C70.251 17.9067 70.251 18.6267 70.251 18.72C70.251 18.8133 69.6358 18.32 69.6358 18.0133C69.7595 18.199 69.9367 18.3431 70.144 18.4267C70.144 18.2133 70.0504 17.9067 70.0504 17.7067V17.7067Z" fill="#4C4C4C"/>
<path fill-rule="evenodd" clip-rule="evenodd" d="M68.713 16.5867C68.9136 16.7867 68.9136 17.6 68.9136 17.6C68.7573 17.5497 68.6181 17.4569 68.5118 17.3321C68.4055 17.2072 68.3362 17.0553 68.3118 16.8933C68.3549 16.9993 68.424 17.0927 68.5128 17.1649C68.6016 17.2371 68.7073 17.2859 68.82 17.3067C68.82 17.0933 68.713 16.8933 68.713 16.5867V16.5867Z" fill="#4C4C4C"/>
<path d="M105.062 7.77333C105.61 7.76342 106.156 7.83992 106.68 7.99999C107.168 8.1407 107.622 8.37636 108.018 8.69333C108.386 8.9961 108.678 9.37936 108.874 9.81333C109.094 10.2942 109.204 10.8181 109.195 11.3467C109.194 11.7985 109.127 12.2479 108.994 12.68C108.856 13.1188 108.634 13.5265 108.339 13.88C108.005 14.2493 107.594 14.5407 107.135 14.7333C106.546 14.9733 105.912 15.0869 105.276 15.0667H103.538V19.3333H101.973V7.77333H105.062ZM105.223 13.5733C105.611 13.5862 105.999 13.5181 106.359 13.3733C106.641 13.2515 106.888 13.064 107.082 12.8267C107.251 12.6245 107.374 12.3879 107.443 12.1333C107.522 11.9014 107.562 11.6582 107.563 11.4133C107.563 11.1596 107.522 10.9076 107.443 10.6667C107.356 10.4144 107.224 10.1796 107.055 9.97333C106.868 9.74387 106.63 9.56122 106.359 9.43999C106.038 9.28717 105.685 9.21398 105.33 9.22666H103.538V13.5467L105.223 13.5733ZM107.122 14.4667L110.157 19.3333H108.325L105.223 14.52L107.122 14.4667Z" fill="black"/>
<path d="M111.388 19.3333L116.456 7.33333H116.55L121.619 19.3333H119.84L116.042 9.71999L117.152 8.99999L112.939 19.3333H111.388ZM114.357 14.9467H118.676L119.198 16.28H113.915L114.357 14.9467Z" fill="black"/>
<path d="M123.036 7.77333L126.901 17.3333L126.018 17.16L129.629 7.82666H131.475L126.353 19.9333L121.217 7.77333H123.036Z" fill="black"/>
<path d="M133.735 7.77333H141.264V9.25333H135.34V12.7733H140.689V14.28H135.34V17.8533H141.545V19.3333H133.735V7.77333Z" fill="black"/>
<path d="M154.29 19.7067L145.316 10.6667L145.771 10.7867V19.3733H144.22V7.41333H144.3L153.153 16.52L152.806 16.44V7.77333H154.37V19.7733L154.29 19.7067Z" fill="black"/>
<path d="M100.97 21.1067C101.522 21.0978 102.073 21.1742 102.601 21.3333C103.089 21.4727 103.544 21.7085 103.939 22.0267C104.311 22.329 104.608 22.7121 104.808 23.1467C105.024 23.6286 105.129 24.1524 105.116 24.68C105.115 25.1319 105.048 25.5812 104.915 26.0133C104.783 26.4545 104.56 26.8632 104.26 27.2133C103.926 27.5827 103.515 27.8741 103.056 28.0667C102.472 28.3079 101.843 28.4216 101.211 28.4H99.4453V32.6667H97.894V21.1067H100.97ZM101.13 26.9067C101.523 26.9195 101.915 26.8514 102.28 26.7067C102.56 26.5883 102.804 26.4 102.989 26.16C103.158 25.955 103.285 25.7196 103.364 25.4667C103.439 25.2341 103.475 24.9909 103.471 24.7467C103.468 24.5019 103.427 24.2591 103.35 24.0267C103.268 23.775 103.142 23.5401 102.976 23.3333C102.787 23.1059 102.549 22.9237 102.28 22.8C101.96 22.6472 101.606 22.574 101.251 22.5867H99.4453V26.9067H101.13ZM103.043 27.8L106.079 32.6667H104.313L101.224 27.8533L103.043 27.8Z" fill="black"/>
<path d="M108.472 21.1067H116.015V22.5867H110.024V26.1067H115.373V27.6133H110.024V31.1733H116.229V32.6667H108.472V21.1067Z" fill="black"/>
<path d="M124.935 23.16C124.504 22.9504 124.057 22.7765 123.598 22.64C123.165 22.5007 122.715 22.4243 122.26 22.4133C121.732 22.3901 121.211 22.5399 120.776 22.84C120.6 22.9773 120.459 23.1537 120.364 23.3551C120.269 23.5565 120.222 23.7774 120.228 24C120.225 24.3415 120.355 24.6707 120.589 24.92C120.853 25.1897 121.166 25.4069 121.512 25.56C121.899 25.7467 122.301 25.92 122.729 26.08C123.091 26.206 123.444 26.3575 123.785 26.5333C124.133 26.7026 124.457 26.9179 124.748 27.1733C125.034 27.4395 125.262 27.7618 125.417 28.12C125.588 28.5437 125.674 28.9966 125.671 29.4533C125.676 30.0443 125.519 30.6254 125.216 31.1333C124.895 31.6498 124.43 32.0621 123.879 32.32C123.242 32.6286 122.54 32.7796 121.833 32.76C120.906 32.7427 119.995 32.5291 119.158 32.1333C118.789 31.9639 118.436 31.7631 118.101 31.5333L118.797 30.32C119.074 30.5204 119.37 30.6945 119.679 30.84C120.008 31.0084 120.353 31.1425 120.709 31.24C121.058 31.3328 121.418 31.382 121.779 31.3867C122.149 31.3873 122.517 31.3195 122.862 31.1867C123.21 31.0713 123.516 30.8583 123.745 30.5733C123.998 30.2668 124.127 29.8767 124.106 29.48C124.116 29.1281 124.003 28.7838 123.785 28.5067C123.563 28.226 123.286 27.9944 122.969 27.8267C122.619 27.626 122.252 27.4565 121.873 27.32C121.498 27.1867 121.124 27.04 120.749 26.8667C120.389 26.699 120.049 26.4934 119.733 26.2533C119.413 26.0143 119.149 25.7096 118.957 25.36C118.738 24.951 118.636 24.4896 118.663 24.0267C118.645 23.5054 118.77 22.9891 119.024 22.5333C119.321 22.0754 119.737 21.7066 120.228 21.4667C120.78 21.1898 121.388 21.0438 122.006 21.04C122.676 21.0323 123.342 21.1222 123.986 21.3067C124.51 21.4739 125.016 21.6928 125.497 21.96L124.935 23.16Z" fill="black"/>
<path d="M127.543 26.8933C127.544 26.1111 127.699 25.3365 127.998 24.6133C128.321 23.9047 128.775 23.2626 129.335 22.72C129.872 22.1588 130.512 21.706 131.221 21.3867C131.944 21.0786 132.721 20.9197 133.508 20.9197C134.294 20.9197 135.072 21.0786 135.794 21.3867C136.511 21.7057 137.16 22.1582 137.707 22.72C138.267 23.2626 138.721 23.9047 139.044 24.6133C139.353 25.3387 139.512 26.1186 139.512 26.9067C139.512 27.6947 139.353 28.4747 139.044 29.2C138.724 29.9066 138.27 30.5449 137.707 31.08C137.164 31.6138 136.524 32.0393 135.821 32.3333C135.094 32.6435 134.312 32.8023 133.521 32.8C132.731 32.8095 131.948 32.6552 131.221 32.3467C130.518 32.0526 129.878 31.6272 129.335 31.0933C128.77 30.5656 128.315 29.9311 127.998 29.2267C127.695 28.486 127.54 27.6933 127.543 26.8933V26.8933ZM129.148 26.8933C129.141 27.4834 129.255 28.0686 129.482 28.6133C129.694 29.1364 130.007 29.6123 130.405 30.0133C130.789 30.4078 131.242 30.7287 131.742 30.96C132.271 31.1986 132.847 31.317 133.427 31.3067C134.012 31.3159 134.592 31.1976 135.126 30.96C135.632 30.7396 136.087 30.4173 136.463 30.0133C136.858 29.6099 137.171 29.1346 137.386 28.6133C137.614 28.0736 137.728 27.4925 137.72 26.9067C137.726 26.3124 137.612 25.7231 137.386 25.1733C137.161 24.6532 136.849 24.1751 136.463 23.76C136.08 23.3617 135.626 23.0364 135.126 22.8C134.588 22.5747 134.01 22.4613 133.427 22.4667C132.838 22.4576 132.254 22.5759 131.716 22.8133C131.215 23.0497 130.762 23.375 130.378 23.7733C129.986 24.1813 129.677 24.6613 129.469 25.1867C129.253 25.7299 129.145 26.3092 129.148 26.8933V26.8933Z" fill="black"/>
<path d="M145.102 21.1067C145.655 21.0978 146.205 21.1742 146.734 21.3333C147.222 21.4727 147.677 21.7085 148.071 22.0267C148.443 22.329 148.74 22.7121 148.941 23.1467C149.156 23.6286 149.261 24.1524 149.248 24.68C149.248 25.1319 149.18 25.5812 149.048 26.0133C148.915 26.4545 148.692 26.8632 148.392 27.2133C148.059 27.5827 147.648 27.8741 147.189 28.0667C146.604 28.3079 145.975 28.4216 145.343 28.4H143.618V32.6667H142.026V21.1067H145.102ZM145.263 26.9067C145.656 26.9184 146.047 26.8503 146.413 26.7067C146.69 26.5848 146.934 26.3971 147.122 26.16C147.29 25.955 147.417 25.7196 147.496 25.4667C147.565 25.2327 147.601 24.9904 147.603 24.7467C147.6 24.5019 147.56 24.2591 147.483 24.0267C147.401 23.775 147.274 23.5401 147.108 23.3333C146.92 23.1059 146.682 22.9237 146.413 22.8C146.092 22.6472 145.739 22.574 145.383 22.5867H143.578V26.9067H145.263ZM147.175 27.8L150.211 32.6667H148.446L145.356 27.8533L147.175 27.8Z" fill="black"/>
<path d="M151.575 21.1067H159.292V22.5867H156.176V32.6667H154.624V22.5867H151.575V21.1067Z" fill="black"/>
</svg>
